<svg xmlns="http://www.w3.org/2000/svg" viewBox="0 0 64 64">
  <title>PawReach monogram</title>
  <rect width="64" height="64" rx="18" fill="#145a46"/>
  <path fill="#f8f2e5" d="M15.5 47V17h11.2c6.9 0 11.3 3.7 11.3 10.1 0 6.4-4.4 10.2-11.3 10.2h-4.2V47h-7Zm7-15.7h3.5c3.2 0 5-1.5 5-4.2 0-2.8-1.8-4.2-5-4.2h-3.5v8.4Z"/>
  <path fill="#f8f2e5" d="M34 47V17h11.5c6.9 0 11 3.3 11 9.2 0 4-2.1 6.9-5.7 8.2L57.2 47h-7.9l-5.6-11h-2.8v11h-7Zm7-16.9h3.7c3.1 0 4.9-1.3 4.9-3.8 0-2.6-1.8-3.8-4.9-3.8H41v7.6Z"/>
  <path fill="#f3654d" d="M29.5 44.3c1.4-2.8 4.7-2.8 6.1 0 .6 1.2.4 2.8-.7 3.8L32.5 51l-2.4-2.9c-1.1-1-1.3-2.6-.6-3.8Z"/>
</svg>
